HIERARCHY
ROOT root
{
	OFFSET 0.000000 0.000000 0.000000
	CHANNELS 6 Xposition Yposition Zposition Zrotation Yrotation Xrotation
	JOINT lhip
	{
		OFFSET 0.058581 -0.082280 -0.017664
		CHANNELS 3 Zrotation Yrotation Xrotation
		JOINT lknee
		{
			OFFSET 0.043451 -0.386469 0.008037
			CHANNELS 3 Zrotation Yrotation Xrotation
			JOINT lankle
			{
				OFFSET -0.014790 -0.426874 -0.037428
				CHANNELS 3 Zrotation Yrotation Xrotation
				JOINT ltoe
				{
					OFFSET 0.041054 -0.060286 0.122042
					CHANNELS 3 Zrotation Yrotation Xrotation
					End Site
					{
						OFFSET 0.000000 0.000000 0.000000
					}
				}
			}
		}
	}
	JOINT rhip
	{
		OFFSET -0.060310 -0.090513 -0.013543
		CHANNELS 3 Zrotation Yrotation Xrotation
		JOINT rknee
		{
			OFFSET -0.043257 -0.383688 -0.004843
			CHANNELS 3 Zrotation Yrotation Xrotation
			JOINT rankle
			{
				OFFSET 0.019056 -0.420046 -0.034562
				CHANNELS 3 Zrotation Yrotation Xrotation
				JOINT rtoe
				{
					OFFSET -0.034840 -0.062106 0.130323
					CHANNELS 3 Zrotation Yrotation Xrotation
					End Site
					{
						OFFSET 0.000000 0.000000 0.000000
					}
				}
			}
		}
	}
	JOINT lowerback
	{
		OFFSET 0.004439 0.124404 -0.038385
		CHANNELS 3 Zrotation Yrotation Xrotation
		JOINT upperback
		{
			OFFSET 0.004488 0.137956 0.026820
			CHANNELS 3 Zrotation Yrotation Xrotation
			JOINT chest
			{
				OFFSET -0.002265 0.056032 0.002855
				CHANNELS 3 Zrotation Yrotation Xrotation
				JOINT lowerneck
				{
					OFFSET -0.013390 0.211636 -0.033468
					CHANNELS 3 Zrotation Yrotation Xrotation
					JOINT upperneck
					{
						OFFSET 0.010113 0.088937 0.050410
						CHANNELS 3 Zrotation Yrotation Xrotation
						End Site
						{
							OFFSET 0.000000 0.000000 0.000000
						}
					}
				}
				JOINT lclavicle
				{
					OFFSET 0.071702 0.114000 -0.018898
					CHANNELS 3 Zrotation Yrotation Xrotation
					JOINT lshoulder
					{
						OFFSET 0.122921 0.045205 -0.019046
						CHANNELS 3 Zrotation Yrotation Xrotation
						JOINT lelbow
						{
							OFFSET 0.255332 -0.015649 -0.022946
							CHANNELS 3 Zrotation Yrotation Xrotation
							JOINT lwrist
							{
								OFFSET 0.265709 0.012698 -0.007375
								CHANNELS 3 Zrotation Yrotation Xrotation
								End Site
								{
									OFFSET 0.000000 0.000000 0.000000
								}
							}
						}
					}
				}
				JOINT rclavicle
				{
					OFFSET -0.082954 0.112472 -0.023707
					CHANNELS 3 Zrotation Yrotation Xrotation
					JOINT rshoulder
					{
						OFFSET -0.113228 0.046853 -0.008472
						CHANNELS 3 Zrotation Yrotation Xrotation
						JOINT relbow
						{
							OFFSET -0.260127 -0.014369 -0.031269
							CHANNELS 3 Zrotation Yrotation Xrotation
							JOINT rwrist
							{
								OFFSET -0.269108 0.006794 -0.006027
								CHANNELS 3 Zrotation Yrotation Xrotation
								End Site
								{
									OFFSET 0.000000 0.000000 0.000000
								}
							}
						}
					}
				}
			}
		}
	}
}
MOTION
Frames: 11
Frame Time: 0.033333
0.545771 -0.250094 0.983454 122.679101 -16.325932 88.321058 34.478037 15.079558 -4.357364 5.932554 2.020075 15.287254 -2.465939 24.271025 47.426467 0.000000 -0.000000 0.000000 -5.676633 -12.203789 -23.895663 -3.499946 -5.175753 31.685515 -11.847583 -28.635874 -15.183218 0.000000 -0.000000 0.000000 -14.505283 -1.573702 -10.099345 -3.748463 -1.975169 7.371240 -2.733821 -2.830473 -12.804933 -0.711964 -9.186258 21.084411 12.875400 -4.389782 -0.099475 -15.163997 4.098847 -4.658484 -0.859548 -12.501522 0.330724 0.175353 -6.787448 31.510098 -8.372914 27.235657 52.131212 13.895289 -11.190884 -4.611560 20.398286 10.335000 -3.703207 -4.575604 -15.919873 20.836465 15.463352 -24.557178 32.795993 
0.567045 -0.255027 0.959776 114.006897 -13.129103 88.624811 30.263886 8.990778 -6.716825 5.127411 -2.413541 12.156863 2.744220 26.493236 39.451185 0.000000 -0.000000 0.000000 -3.123879 -2.530710 -26.851256 0.239073 -6.847043 41.230582 -9.754370 -32.066041 -20.121260 0.000000 -0.000000 0.000000 -8.912549 -1.696234 -5.467696 -3.754360 -1.874221 4.686744 -3.463160 -0.386553 -10.373938 -1.054933 -7.678092 13.566893 13.160451 -1.685583 3.264903 -17.690688 0.882096 -6.994579 -6.390878 -14.948597 1.918785 1.222115 -9.695018 33.912259 -3.981488 23.744598 51.409770 14.436356 -7.249620 -5.642850 21.511704 11.006924 -2.707607 -3.991462 -12.474211 20.911897 10.755238 -20.656428 31.686883 
0.585298 -0.259513 0.952392 105.217567 -11.535147 87.465634 24.673655 5.635539 -8.854399 3.831183 -3.714641 12.233569 3.052485 27.876346 22.390796 0.000000 -0.000000 0.000000 0.294607 -1.131631 -22.881273 1.227931 -4.738051 40.619360 -9.789899 -29.242417 -24.408496 0.000000 -0.000000 0.000000 -7.352413 -0.253914 0.770788 -3.546466 -2.121678 4.305493 -2.521138 0.092303 -11.078246 -0.585588 -4.337490 10.947831 13.502832 1.068783 1.678875 -17.667089 -2.576706 -7.263675 -13.069134 -18.226897 5.359974 1.733859 -10.591183 33.190795 -4.203157 21.356166 51.384692 13.240168 -2.915964 -6.277349 23.480378 11.466704 2.025490 -2.802678 -11.347439 21.573757 10.893497 -16.880231 28.835044 
0.607061 -0.259612 0.952955 98.678901 -11.259620 88.012110 18.274507 3.582055 -12.271168 1.032902 -8.776788 8.857487 -1.764423 22.683550 8.340843 0.000000 -0.000000 0.000000 2.674806 -1.628949 -20.423866 1.189037 0.349829 39.361923 -8.404982 -26.928315 -25.665762 0.000000 -0.000000 0.000000 -7.787390 0.863006 2.663031 -3.426317 -3.218122 4.276082 -1.898487 -0.606664 -10.503196 -0.169502 -2.820085 9.417514 14.582945 4.648136 4.117480 -18.294497 -7.341618 -8.236382 -17.835693 -21.821236 10.797665 0.849777 -9.907655 36.117767 -2.543799 19.126811 54.585590 13.763880 -0.648890 -7.329140 23.094374 11.075745 5.845453 -0.117126 -6.033638 23.988596 10.089371 -13.467081 28.919670 
0.631886 -0.255369 0.960971 91.390714 -9.896138 90.703808 13.908494 3.551405 -15.969477 -0.928428 -10.478626 3.131659 -3.810203 19.119443 -0.256054 0.000000 -0.000000 0.000000 4.040881 1.461258 -19.335846 2.923176 2.748229 36.812815 -6.111138 -25.982661 -25.404239 0.000000 -0.000000 0.000000 -7.016618 1.246541 1.202331 -2.672512 -4.144662 4.558938 -1.302313 -0.870137 -10.619556 -1.150451 -1.447968 9.955488 15.622974 9.050923 5.559827 -19.610555 -12.470357 -7.891051 -22.748445 -23.218737 17.537630 -0.661306 -10.589634 44.825694 -3.408445 17.637653 54.789534 12.972617 -0.325848 -8.570585 22.253198 9.167787 8.430850 4.328179 5.606160 30.865559 10.031951 -9.248064 26.522611 
0.658038 -0.249494 0.974760 80.939188 -8.093706 93.304476 10.803121 4.877317 -18.288793 -1.651155 -9.316632 -1.272964 -3.882291 20.619567 -4.617945 0.000000 -0.000000 0.000000 4.976437 3.495038 -17.644312 3.513978 4.270415 33.457124 -4.729726 -22.375344 -22.759531 0.000000 -0.000000 0.000000 -5.709082 1.955198 0.279672 -1.776251 -4.274516 3.718811 -0.830256 -0.578483 -10.492776 -1.621553 0.854928 9.942871 15.732980 13.037260 6.682967 -20.431680 -16.060889 -6.699976 -27.443563 -24.311868 22.777113 -3.408956 -13.041863 54.288396 -4.453106 15.467276 54.043989 12.087686 -0.239492 -8.415318 20.553094 7.934734 8.887424 11.468872 19.954316 39.491867 9.634137 -5.644936 25.849272 
0.685271 -0.244421 0.993465 68.054500 -6.084745 94.904859 9.142322 6.330186 -19.068073 -1.450783 -8.905041 -3.258485 -3.592253 20.744147 -6.515558 0.000000 -0.000000 0.000000 5.620645 3.211478 -15.734991 3.885397 5.641583 30.738701 -2.967852 -17.999489 -19.121843 0.000000 -0.000000 0.000000 -4.283275 2.633583 0.123724 -1.016930 -4.290742 3.117638 -0.355493 -0.084978 -10.271402 -1.914472 4.835726 9.393498 15.273790 16.662640 6.669285 -20.829934 -18.562954 -5.772475 -30.119290 -24.261104 24.944760 -7.495882 -17.184198 60.598141 -7.302283 13.392859 51.719241 11.139896 1.315272 -7.175961 19.127462 7.776224 9.285471 21.362850 32.986913 49.105595 10.796405 -1.900778 23.468901 
0.711843 -0.238885 1.012831 53.248437 -5.121584 94.871002 9.294756 5.178783 -17.893919 -2.346434 -8.491924 -2.735007 -5.237929 17.424685 -8.169835 0.000000 -0.000000 0.000000 4.785655 3.052019 -13.051747 3.008832 5.027498 28.243712 -1.745852 -16.625502 -13.972116 0.000000 -0.000000 0.000000 -4.647083 3.001638 2.266949 -0.403042 -4.474100 1.905268 0.503297 0.515694 -9.663642 -1.626228 10.572267 8.441221 14.196707 20.291071 6.320437 -19.791359 -19.482891 -5.801684 -30.951816 -23.967331 25.586969 -14.005059 -23.332189 62.828268 -13.990814 13.570587 45.492953 10.677883 4.167584 -6.410002 17.944262 9.628348 11.290582 34.087042 43.183350 59.315233 17.517007 -1.670480 18.729764 
0.745573 -0.232911 1.028204 37.069108 -4.477881 94.960377 9.630542 2.382262 -15.417236 -2.454919 -8.537893 -2.464531 -6.464506 14.451077 -8.506186 0.000000 -0.000000 0.000000 3.356745 1.771878 -11.773515 0.954738 2.679947 26.316592 -1.452819 -17.086355 -8.695974 0.000000 -0.000000 0.000000 -4.665740 3.260151 3.735922 -0.196215 -4.154625 0.042700 0.840127 0.879614 -8.535913 -1.923235 15.930875 7.430804 13.639525 24.142735 6.023176 -18.005033 -18.983269 -6.491408 -32.232727 -24.342814 26.265898 -21.518950 -28.863389 61.963136 -21.474701 13.495134 35.913400 10.192296 5.929130 -5.867305 17.075857 13.600220 12.148176 51.747482 48.935494 72.368200 25.829931 -3.133731 13.817935 
0.780298 -0.227163 1.039831 19.825558 -3.092040 97.220885 10.212051 0.132503 -15.268859 -2.842397 -12.093235 -0.173265 -7.130333 13.712755 -5.466124 0.000000 -0.000000 0.000000 2.156044 0.578613 -13.912073 -0.563089 -1.421878 23.377500 -2.378565 -17.978169 -4.739203 0.000000 -0.000000 0.000000 -4.526585 3.241545 1.629526 0.497970 -3.951565 0.682932 1.164653 1.923141 -9.724963 -2.645318 20.095452 6.459183 13.939653 27.293999 6.934327 -16.504075 -18.974880 -6.236815 -31.952323 -24.082974 26.934224 -30.412391 -34.452342 64.648224 -27.849770 14.307901 28.262120 10.159570 8.428618 -4.649533 15.459658 16.582479 12.436306 69.826915 51.222738 85.346990 33.750790 -3.525200 8.865463 
0.814390 -0.222049 1.044921 1.808096 -1.272135 98.900155 10.479211 -1.622095 -15.101481 -2.962984 -14.385924 6.997899 -3.629074 18.636562 -10.433967 0.000000 -0.000000 0.000000 2.145024 -0.950052 -16.370632 -2.339242 -5.459857 19.384866 -2.695559 -19.333235 -1.668491 0.000000 -0.000000 0.000000 -5.061047 3.804894 0.021911 1.825244 -3.431174 1.195484 1.690172 2.546151 -10.447847 -4.175887 23.929441 4.608401 15.038056 28.887380 6.439005 -14.091393 -19.189145 -6.251526 -30.774110 -24.371573 27.014296 -41.795319 -39.766770 70.730760 -29.288923 11.706308 21.297334 10.056774 10.566354 -5.033437 14.158019 18.346682 11.835589 85.735906 50.278788 96.254375 35.484357 -0.512836 3.633626 
